<svg viewBox="0 0 24 24" xmlns="http://www.w3.org/2000/svg" xmlns:xlink="http://www.w3.org/1999/xlink" width="24.000000" height="24.000000" fill="none" customFrame="url(#clipPath_0)">
	<defs>
		<clipPath id="clipPath_0">
			<rect width="24.000000" height="24.000000" x="0.000000" y="0.000000" rx="12.000000" fill="rgb(255,255,255)" />
		</clipPath>
	</defs>
	<rect id="logo-sign" width="24.000000" height="24.000000" x="0.000000" y="0.000000" rx="12.000000" fill="rgb(239.062,27.8906,48.7471)" />
	<g id="Group 159">
		<path id="Vector" d="M14.375 9.06923C14.375 9.9731 13.6521 10.7058 12.7603 10.7058C11.8685 10.7058 11.1455 9.9731 11.1455 9.06923C11.1455 8.16535 11.8685 7.43262 12.7603 7.43262C13.6521 7.43262 14.375 8.16535 14.375 9.06923Z" fill="rgb(255,255,255)" fill-rule="nonzero" />
		<path id="Vector" d="M8.10134 10.9946C7.55613 10.9075 7.29282 11.6382 7.76829 11.9189L9.95994 13.2126L4.88002 19.9598C4.65795 20.2547 5.0613 20.6124 5.32754 20.3566L12.629 13.341C13.2244 12.769 12.9092 11.7627 12.0939 11.6325L8.10134 10.9946Z" fill="rgb(255,255,255)" fill-rule="nonzero" />
		<path id="Vector" d="M12.2835 14.804L10.5771 16.4455L11.729 17.9868L9.83712 19.0904C9.53102 19.269 9.7331 19.7374 10.073 19.6373L13.3695 18.6665C14.0243 18.4736 14.2977 17.6958 13.9075 17.1357L12.2835 14.804Z" fill="rgb(255,255,255)" fill-rule="nonzero" />
		<path id="Vector" d="M0.546686 13.7861C0.546686 12.306 0.858294 10.9816 1.40361 9.73521L0.70249 9.4236C0.157178 11.2153 0.0792759 13.1629 0.468785 14.9546L0.624589 14.9546C0.546686 14.5651 0.546686 14.1756 0.546686 13.7861ZM22.5929 8.80039L19.321 10.0468C19.9442 11.527 20.1779 13.2408 20.0221 14.9546L22.9824 14.9546C23.3719 12.9292 23.294 10.7479 22.5929 8.80039ZM18.0746 2.95775L16.0491 5.91802C17.2176 6.77494 18.2304 7.94348 18.9315 9.26781L22.2813 8.02137C21.4244 5.91802 19.9442 4.20418 18.0746 2.95775ZM4.83128 3.34726L5.99981 5.06111C7.32414 4.35998 8.72637 4.04839 10.3623 4.04839L10.3623 1.16602C8.25897 1.39972 6.38932 2.17874 4.83128 3.34726ZM0.936195 8.64459L1.79312 8.9562C2.65003 7.47606 3.81856 6.30754 5.22079 5.45061L4.13017 3.89258C2.72794 5.21691 1.63731 6.77494 0.936195 8.64459Z" opacity="0" fill="rgb(242,42,82)" fill-rule="evenodd" />
		<path id="Vector" d="M15.348 5.4508L17.3735 2.49054C15.5038 1.47782 13.4004 0.932505 11.2192 1.08831L11.2192 4.04858C13.0017 4.26462 13.8957 4.5908 15.348 5.4508Z" opacity="0" fill="rgb(242,42,82)" fill-rule="nonzero" />
		<g id="Group 366" opacity="0">
			<path id="Vector" d="M0.548099 13.731C0.548099 12.3753 0.808388 11.1497 1.26962 9.9949C1.3436 9.80969 1.2616 9.59693 1.07935 9.51593L1.07935 9.51593C0.880248 9.42744 0.648156 9.53318 0.592666 9.74388C0.147988 11.4323 0.107051 13.2358 0.469855 14.9047L0.626343 14.9047C0.548099 14.5135 0.548099 14.1223 0.548099 13.731Z" fill="rgb(239.062,27.8906,48.7471)" fill-rule="evenodd" />
			<path id="Vector" d="M1.12453 8.10141C1.01752 8.35545 1.15085 8.64346 1.4099 8.73767L1.4099 8.73767C1.63568 8.81977 1.88674 8.72731 2.01543 8.52445C2.68367 7.471 3.51695 6.58601 4.48438 5.86946C4.88277 5.57438 5.00258 5.01529 4.71828 4.60914L4.71828 4.60914C4.41745 4.17939 3.8032 4.11563 3.44831 4.50194C2.48221 5.55359 1.69688 6.74266 1.12453 8.10141Z" fill="rgb(239.062,27.8906,48.7471)" fill-rule="evenodd" />
			<path id="Vector" d="M5.63942 2.70544C5.18618 2.98923 5.08881 3.59422 5.39006 4.03605L5.52145 4.22876C5.80831 4.64949 6.36337 4.78083 6.83577 4.5907C7.64412 4.26536 8.49075 4.07119 9.40796 3.99202C9.9582 3.94452 10.4069 3.50275 10.4069 2.95046L10.4069 2.17268C10.4069 1.57667 9.88728 1.1093 9.30392 1.23145C7.9667 1.51143 6.7377 2.01774 5.63942 2.70544Z" fill="rgb(239.062,27.8906,48.7471)" fill-rule="evenodd" />
			<path id="Vector" d="M14.579 4.90173C15.0473 5.14324 15.6284 5.02013 15.9259 4.58527L16.8049 3.3006C17.1399 2.81102 16.9785 2.13542 16.4342 1.89948C15.0969 1.31971 13.6623 0.97879 12.1807 0.951914C11.6561 0.942399 11.2501 1.38309 11.2501 1.90773L11.2501 3.06377C11.2501 3.56952 11.6292 3.98988 12.1272 4.07826C13.0736 4.24623 13.7738 4.48644 14.579 4.90173Z" fill="rgb(239.062,27.8906,48.7471)" fill-rule="nonzero" />
			<path id="Vector" d="M16.5364 5.08004L17.4663 3.72093C17.7755 3.26901 18.3938 3.14647 18.8237 3.48574C20.0574 4.45953 21.0815 5.65884 21.815 7.05662C22.0772 7.55629 21.8119 8.15419 21.2831 8.35098L19.707 8.93741C19.2366 9.11244 18.7137 8.90843 18.4405 8.48738C17.9601 7.74698 17.3826 7.07075 16.7396 6.49018C16.3391 6.1286 16.2317 5.52534 16.5364 5.08004Z" fill="rgb(239.062,27.8906,48.7471)" fill-rule="nonzero" />
			<path id="Vector" d="M20.2433 9.65659L21.6104 9.1358C22.1333 8.93663 22.7223 9.2047 22.8576 9.74757C23.2128 11.1721 23.2699 12.6815 23.0839 14.139C23.0232 14.6146 22.607 14.9545 22.1275 14.9545L21.0752 14.9545C20.4872 14.9545 20.0303 14.4489 20.027 13.8608C20.0215 12.8759 19.8863 11.9074 19.6214 11.0003C19.4629 10.4571 19.7146 9.85802 20.2433 9.65659Z" fill="rgb(239.062,27.8906,48.7471)" fill-rule="nonzero" />
		</g>
	</g>
	<g id="Group">
		<path id="Vector" d="M15.0484 4.27958C14.962 4.52582 15.0802 4.79571 15.3129 4.91399C16.124 5.32635 16.8788 5.87492 17.5421 6.56368C17.9206 6.96011 18.249 7.37848 18.5354 7.81049C18.6876 8.04 18.9919 8.1199 19.2295 7.98063L21.4949 6.65256C21.7388 6.50957 21.8166 6.19228 21.6548 5.96038C21.4659 5.68949 21.2609 5.4205 21.0399 5.15699C19.7888 3.6595 18.3929 2.38117 16.5047 1.62633C16.2502 1.52457 15.9672 1.66311 15.8764 1.92176L15.0484 4.27958Z" fill="rgb(255,255,255)" fill-rule="nonzero" />
		<path id="Vector" d="M3.00662 7.26647C3.20963 7.41969 3.49458 7.39544 3.67787 7.21911C4.70443 6.23158 6.17783 5.1942 7.27379 4.70929C7.31531 4.69129 7.35733 4.6733 7.39975 4.6554C7.67364 4.53988 7.80694 4.21938 7.67928 3.95093L7.05939 2.64744C6.93739 2.39089 6.62573 2.28644 6.38121 2.43104C4.9444 3.28073 3.91312 4.35396 3.17528 5.31672C2.91952 5.65274 2.69043 5.98876 2.48315 6.32726C2.3524 6.54078 2.41086 6.8168 2.6107 6.96763L3.00662 7.26647Z" fill="rgb(255,255,255)" fill-rule="nonzero" />
		<path id="Vector" d="M15.0756 1.74325C15.1735 1.46515 15.0109 1.16214 14.7213 1.10678C14.1507 0.997699 13.5389 0.930705 12.8805 0.911344C10.9769 0.843092 9.38528 1.13911 8.0571 1.63289C7.79104 1.7318 7.67567 2.03905 7.79745 2.29545L8.53735 3.85329C8.63958 4.06854 8.87923 4.18035 9.11263 4.13232C10.5828 3.82977 12.1656 3.86182 13.6605 4.27694C13.924 4.35011 14.205 4.21443 14.2958 3.95649L15.0756 1.74325Z" fill="rgb(255,255,255)" fill-rule="nonzero" />
		<path id="Vector" d="M2.80787 8.19261C2.82059 8.17749 2.81368 8.15381 2.79793 8.14188L2.37307 7.81986C2.11939 7.62759 1.75216 7.719 1.63272 8.01405C0.246752 11.4378 0.842481 14.5944 0.941215 15.0551C0.948751 15.0903 0.979443 15.1128 1.01541 15.1128L1.01541 15.1128C1.06461 15.1128 1.1021 15.068 1.09445 15.0194C1.00302 14.4386 0.62685 11.245 2.80439 8.19702C2.80562 8.19529 2.80651 8.19424 2.80787 8.19261L2.80787 8.19261Z" fill="rgb(255,255,255)" fill-rule="nonzero" />
		<path id="Vector" d="M19.5854 8.73466C19.3608 8.8664 19.2763 9.14848 19.3792 9.38768C20.2883 11.5013 20.4092 13.6117 20.4101 14.5736C20.4103 14.8646 20.6437 15.1125 20.9347 15.1125L23.221 15.1125C23.4563 15.1125 23.6581 14.948 23.6906 14.7148C23.8376 13.659 24.07 10.6547 22.5955 7.57183C22.473 7.31575 22.1565 7.22668 21.9117 7.37029L19.5854 8.73466Z" fill="rgb(255,255,255)" fill-rule="nonzero" />
	</g>
</svg>
